<?xml version="1.0" encoding="UTF-8" standalone="no"?>
<!-- Generator: Adobe Illustrator 15.0.0, SVG Export Plug-In . SVG Version: 6.00 Build 0)  -->

<svg
   xmlns:dc="http://purl.org/dc/elements/1.1/"
   xmlns:cc="http://creativecommons.org/ns#"
   xmlns:rdf="http://www.w3.org/1999/02/22-rdf-syntax-ns#"
   xmlns:svg="http://www.w3.org/2000/svg"
   xmlns="http://www.w3.org/2000/svg"
   xmlns:sodipodi="http://sodipodi.sourceforge.net/DTD/sodipodi-0.dtd"
   xmlns:inkscape="http://www.inkscape.org/namespaces/inkscape"
   version="1.0"
   id="Layer_1"
   x="0px"
   y="0px"
   width="70"
   height="70"
   viewBox="0 0 70 70.000001"
   enable-background="new 0 0 566.93 566.93"
   xml:space="preserve"
   inkscape:version="0.47 r22583"
   sodipodi:docname="stop-sinletras.svg"><metadata
   id="metadata30"><rdf:RDF><cc:Work
       rdf:about=""><dc:format>image/svg+xml</dc:format><dc:type
         rdf:resource="http://purl.org/dc/dcmitype/StillImage" /><dc:title></dc:title></cc:Work></rdf:RDF></metadata><defs
   id="defs28"><inkscape:perspective
     sodipodi:type="inkscape:persp3d"
     inkscape:vp_x="0 : 268.79401 : 1"
     inkscape:vp_y="0 : 1000 : 0"
     inkscape:vp_z="537.70502 : 268.79401 : 1"
     inkscape:persp3d-origin="268.85251 : 179.196 : 1"
     id="perspective3008" /></defs><sodipodi:namedview
   pagecolor="#ffffff"
   bordercolor="#666666"
   borderopacity="1"
   objecttolerance="10"
   gridtolerance="10"
   guidetolerance="10"
   inkscape:pageopacity="0"
   inkscape:pageshadow="2"
   inkscape:window-width="1440"
   inkscape:window-height="845"
   id="namedview26"
   showgrid="false"
   fit-margin-top="0"
   fit-margin-left="0"
   fit-margin-right="0"
   fit-margin-bottom="0"
   inkscape:zoom="5.2085406"
   inkscape:cx="103.86722"
   inkscape:cy="56.975418"
   inkscape:window-x="-4"
   inkscape:window-y="-3"
   inkscape:window-maximized="1"
   inkscape:current-layer="Layer_1" />
<g
   id="g3"
   transform="matrix(0.13018291,0,0,0.13021124,-2.1122177,-1.9013656)">
	<path
   clip-rule="evenodd"
   d="m 174.067,552.19 h 222.319 l 0.313,-0.316 156.918,-156.76 0.313,-0.36 V 172.057 L 553.617,171.75 396.7,14.907 396.387,14.602 H 173.641 l -0.296,0.325 -156.825,156.823 -0.295,0.307 v 222.697 l 0.295,0.36 157.121,157.076 h 0.426 M 18.337,394.336 V 172.493 l -0.296,0.72 156.769,-156.796 -0.743,0.307 h 221.854 l -0.74,-0.307 156.934,156.796 -0.296,-0.72 v 221.843 l 0.296,-0.74 -156.933,156.775 0.74,-0.303 H 174.067 l 0.743,0.303 -156.769,-156.775 0.296,0.74 z"
   id="path5"
   style="fill:#db0000;fill-opacity:1;fill-rule:evenodd;stroke:none"
   inkscape:connector-curvature="0" />
	<polyline
   clip-rule="evenodd"
   points="181.536,533.353 388.491,533.353 534.918,386.914    534.918,179.915 388.491,33.476 181.536,33.476 35.109,179.915 35.109,386.914 181.536,533.353  "
   id="polyline7"
   style="fill:#db0000;fill-opacity:1;fill-rule:evenodd;stroke:none" />
</g>

</svg>